<?xml version="1.0" encoding="UTF-8" standalone="no"?>
<!DOCTYPE svg PUBLIC "-//W3C//DTD SVG 1.1//EN"
 "http://www.w3.org/Graphics/SVG/1.1/DTD/svg11.dtd">
<!-- Generated by graphviz version 2.42.4 (0)
 -->
<!-- Title: G Pages: 1 -->
<svg width="4220pt" height="739pt"
 viewBox="0.00 0.00 4219.80 738.80" xmlns="http://www.w3.org/2000/svg" xmlns:xlink="http://www.w3.org/1999/xlink">
<g id="graph0" class="graph" transform="scale(1 1) rotate(0) translate(32.4 706.4)">
<title>G</title>
<polygon fill="#071113" stroke="transparent" points="-32.4,32.4 -32.4,-706.4 4187.4,-706.4 4187.4,32.4 -32.4,32.4"/>
<text text-anchor="middle" x="2077.5" y="-647.6" font-family="Consolas" font-size="28.00" fill="#d7f7ff">ControlRoom IQ — Reasoning Agents Architecture</text>
<text text-anchor="middle" x="2077.5" y="-616.6" font-family="Consolas" font-size="28.00" fill="#d7f7ff">Human&#45;in&#45;the&#45;loop flight simulator with Microsoft Foundry IQ grounded evidence</text>
<g id="clust1" class="cluster">
<title>cluster_ux</title>
<path fill="#071113" stroke="#34565d" stroke-width="2" d="M3381,-214C3381,-214 4135,-214 4135,-214 4141,-214 4147,-220 4147,-226 4147,-226 4147,-460 4147,-460 4147,-466 4141,-472 4135,-472 4135,-472 3381,-472 3381,-472 3375,-472 3369,-466 3369,-460 3369,-460 3369,-226 3369,-226 3369,-220 3375,-214 3381,-214"/>
<text text-anchor="middle" x="3758" y="-445.6" font-family="Consolas" font-size="28.00" fill="#ef6f7a">USER EXPERIENCE</text>
</g>
<g id="clust2" class="cluster">
<title>cluster_api</title>
<path fill="#071113" stroke="#34565d" stroke-width="2" d="M20,-230C20,-230 3040.5,-230 3040.5,-230 3046.5,-230 3052.5,-236 3052.5,-242 3052.5,-242 3052.5,-459 3052.5,-459 3052.5,-465 3046.5,-471 3040.5,-471 3040.5,-471 20,-471 20,-471 14,-471 8,-465 8,-459 8,-459 8,-242 8,-242 8,-236 14,-230 20,-230"/>
<text text-anchor="middle" x="1530.25" y="-444.6" font-family="Consolas" font-size="28.00" fill="#ef6f7a">FASTAPI BACKEND</text>
</g>
<g id="clust3" class="cluster">
<title>cluster_foundry</title>
<path fill="#071113" stroke="#34565d" stroke-width="2" d="M1306,-63C1306,-63 3108,-63 3108,-63 3114,-63 3120,-69 3120,-75 3120,-75 3120,-210 3120,-210 3120,-216 3114,-222 3108,-222 3108,-222 1306,-222 1306,-222 1300,-222 1294,-216 1294,-210 1294,-210 1294,-75 1294,-75 1294,-69 1300,-63 1306,-63"/>
<text text-anchor="middle" x="2207" y="-195.6" font-family="Consolas" font-size="28.00" fill="#ef6f7a">MICROSOFT FOUNDRY + FOUNDRY IQ</text>
</g>
<!-- learner -->
<g id="node1" class="node">
<title>learner</title>
<path fill="#0b171a" stroke="#7dc4cd" stroke-width="2" d="M3707,-424.5C3707,-424.5 3389,-424.5 3389,-424.5 3383,-424.5 3377,-418.5 3377,-412.5 3377,-412.5 3377,-367.5 3377,-367.5 3377,-361.5 3383,-355.5 3389,-355.5 3389,-355.5 3707,-355.5 3707,-355.5 3713,-355.5 3719,-361.5 3719,-367.5 3719,-367.5 3719,-412.5 3719,-412.5 3719,-418.5 3713,-424.5 3707,-424.5"/>
<text text-anchor="middle" x="3548" y="-403.5" font-family="Consolas" font-size="15.00" fill="#d7f7ff">Learner / Human Supervisor</text>
<text text-anchor="middle" x="3548" y="-386.5" font-family="Consolas" font-size="15.00" fill="#d7f7ff">Chooses: approve, reject, evidence,</text>
<text text-anchor="middle" x="3548" y="-369.5" font-family="Consolas" font-size="15.00" fill="#d7f7ff">escalate, or pause automation</text>
</g>
<!-- frontend -->
<g id="node2" class="node">
<title>frontend</title>
<path fill="#0b171a" stroke="#7dc4cd" stroke-width="2" d="M4127,-424.5C4127,-424.5 3899,-424.5 3899,-424.5 3893,-424.5 3887,-418.5 3887,-412.5 3887,-412.5 3887,-333.5 3887,-333.5 3887,-327.5 3893,-321.5 3899,-321.5 3899,-321.5 4127,-321.5 4127,-321.5 4133,-321.5 4139,-327.5 4139,-333.5 4139,-333.5 4139,-412.5 4139,-412.5 4139,-418.5 4133,-424.5 4127,-424.5"/>
<text text-anchor="middle" x="4013" y="-403.5" font-family="Consolas" font-size="15.00" fill="#d7f7ff">React + Vite Frontend</text>
<text text-anchor="middle" x="4013" y="-386.5" font-family="Consolas" font-size="15.00" fill="#d7f7ff">Simulation drills</text>
<text text-anchor="middle" x="4013" y="-369.5" font-family="Consolas" font-size="15.00" fill="#d7f7ff">Evidence Sources</text>
<text text-anchor="middle" x="4013" y="-352.5" font-family="Consolas" font-size="15.00" fill="#d7f7ff">Grounded Supervisor Brief</text>
<text text-anchor="middle" x="4013" y="-335.5" font-family="Consolas" font-size="15.00" fill="#d7f7ff">Reasoning trace + score</text>
</g>
<!-- learner&#45;&gt;frontend -->
<g id="edge1" class="edge">
<title>learner&#45;&gt;frontend</title>
<path fill="none" stroke="#9ae8ff" stroke-width="2" d="M3719.17,-390C3719.17,-390 3878.93,-390 3878.93,-390"/>
<polygon fill="#9ae8ff" stroke="#9ae8ff" stroke-width="2" points="3878.93,-392.8 3886.93,-390 3878.93,-387.2 3878.93,-392.8"/>
<text text-anchor="middle" x="3803" y="-384.4" font-family="Consolas" font-size="12.00" fill="#82aab0">interacts</text>
</g>
<!-- routes -->
<g id="node4" class="node">
<title>routes</title>
<path fill="#111a1d" stroke="#7dc4cd" stroke-width="2" d="M292,-319.5C292,-319.5 28,-319.5 28,-319.5 22,-319.5 16,-313.5 16,-307.5 16,-307.5 16,-262.5 16,-262.5 16,-256.5 22,-250.5 28,-250.5 28,-250.5 292,-250.5 292,-250.5 298,-250.5 304,-256.5 304,-262.5 304,-262.5 304,-307.5 304,-307.5 304,-313.5 298,-319.5 292,-319.5"/>
<text text-anchor="middle" x="160" y="-298.5" font-family="Consolas" font-size="15.00" fill="#d7f7ff">API Layer</text>
<text text-anchor="middle" x="160" y="-281.5" font-family="Consolas" font-size="15.00" fill="#d7f7ff">/api/drills · /api/assess</text>
<text text-anchor="middle" x="160" y="-264.5" font-family="Consolas" font-size="15.00" fill="#d7f7ff">/api/generate&#45;drill · /health</text>
</g>
<!-- frontend&#45;&gt;routes -->
<g id="edge2" class="edge">
<title>frontend&#45;&gt;routes</title>
<path fill="none" stroke="#9ae8ff" stroke-width="2" d="M4013,-321.43C4013,-317.63 4013,-315.25 4013,-315.25 4013,-315.25 312.01,-315.25 312.01,-315.25"/>
<polygon fill="#9ae8ff" stroke="#9ae8ff" stroke-width="2" points="312.01,-312.45 304.01,-315.25 312.01,-318.05 312.01,-312.45"/>
<text text-anchor="middle" x="2192.5" y="-3.4" font-family="Consolas" font-size="12.00" fill="#82aab0">REST API</text>
</g>
<!-- manager_ui -->
<g id="node3" class="node">
<title>manager_ui</title>
<path fill="#0b171a" stroke="#7dc4cd" stroke-width="2" d="M3666.5,-308C3666.5,-308 3429.5,-308 3429.5,-308 3423.5,-308 3417.5,-302 3417.5,-296 3417.5,-296 3417.5,-234 3417.5,-234 3417.5,-228 3423.5,-222 3429.5,-222 3429.5,-222 3666.5,-222 3666.5,-222 3672.5,-222 3678.5,-228 3678.5,-234 3678.5,-234 3678.5,-296 3678.5,-296 3678.5,-302 3672.5,-308 3666.5,-308"/>
<text text-anchor="middle" x="3548" y="-287" font-family="Consolas" font-size="15.00" fill="#d7f7ff">Manager View</text>
<text text-anchor="middle" x="3548" y="-270" font-family="Consolas" font-size="15.00" fill="#d7f7ff">Team readiness</text>
<text text-anchor="middle" x="3548" y="-253" font-family="Consolas" font-size="15.00" fill="#d7f7ff">Completed drills</text>
<text text-anchor="middle" x="3548" y="-236" font-family="Consolas" font-size="15.00" fill="#d7f7ff">Automation over&#45;trust risk</text>
</g>
<!-- orchestrator -->
<g id="node5" class="node">
<title>orchestrator</title>
<path fill="#241317" stroke="#ef6f7a" stroke-width="2" d="M814,-311C814,-311 514,-311 514,-311 508,-311 502,-305 502,-299 502,-299 502,-271 502,-271 502,-265 508,-259 514,-259 514,-259 814,-259 814,-259 820,-259 826,-265 826,-271 826,-271 826,-299 826,-299 826,-305 820,-311 814,-311"/>
<text text-anchor="middle" x="664" y="-290" font-family="Consolas" font-size="15.00" fill="#d7f7ff">Assessment Orchestrator</text>
<text text-anchor="middle" x="664" y="-273" font-family="Consolas" font-size="15.00" fill="#d7f7ff">Coordinates live backend pipeline</text>
</g>
<!-- routes&#45;&gt;orchestrator -->
<g id="edge3" class="edge">
<title>routes&#45;&gt;orchestrator</title>
<path fill="none" stroke="#9ae8ff" stroke-width="2" d="M304.09,-285C304.09,-285 493.63,-285 493.63,-285"/>
<polygon fill="#9ae8ff" stroke="#9ae8ff" stroke-width="2" points="493.63,-287.8 501.63,-285 493.63,-282.2 493.63,-287.8"/>
<text text-anchor="middle" x="403" y="-288.4" font-family="Consolas" font-size="12.00" fill="#82aab0">decision submitted</text>
</g>
<!-- scenario -->
<g id="node6" class="node">
<title>scenario</title>
<path fill="#111a1d" stroke="#7dc4cd" stroke-width="2" d="M1214,-415.5C1214,-415.5 869,-415.5 869,-415.5 863,-415.5 857,-409.5 857,-403.5 857,-403.5 857,-358.5 857,-358.5 857,-352.5 863,-346.5 869,-346.5 869,-346.5 1214,-346.5 1214,-346.5 1220,-346.5 1226,-352.5 1226,-358.5 1226,-358.5 1226,-403.5 1226,-403.5 1226,-409.5 1220,-415.5 1214,-415.5"/>
<text text-anchor="middle" x="1041.5" y="-394.5" font-family="Consolas" font-size="15.00" fill="#d7f7ff">Scenario Generation Agent</text>
<text text-anchor="middle" x="1041.5" y="-377.5" font-family="Consolas" font-size="15.00" fill="#d7f7ff">Creates GEN&#45;* runtime synthetic drills</text>
<text text-anchor="middle" x="1041.5" y="-360.5" font-family="Consolas" font-size="15.00" fill="#d7f7ff">Validates formatting + safety labels</text>
</g>
<!-- routes&#45;&gt;scenario -->
<g id="edge4" class="edge">
<title>routes&#45;&gt;scenario</title>
<path fill="none" stroke="#9ae8ff" stroke-width="2" d="M160,-319.66C160,-347.16 160,-381 160,-381 160,-381 848.98,-381 848.98,-381"/>
<polygon fill="#9ae8ff" stroke="#9ae8ff" stroke-width="2" points="848.98,-383.8 856.98,-381 848.98,-378.2 848.98,-383.8"/>
<text text-anchor="middle" x="403" y="-369.4" font-family="Consolas" font-size="12.00" fill="#82aab0">generate drill</text>
</g>
<!-- evidence -->
<g id="node7" class="node">
<title>evidence</title>
<path fill="#111a1d" stroke="#7dc4cd" stroke-width="2" d="M1569,-307.5C1569,-307.5 1269,-307.5 1269,-307.5 1263,-307.5 1257,-301.5 1257,-295.5 1257,-295.5 1257,-250.5 1257,-250.5 1257,-244.5 1263,-238.5 1269,-238.5 1269,-238.5 1569,-238.5 1569,-238.5 1575,-238.5 1581,-244.5 1581,-250.5 1581,-250.5 1581,-295.5 1581,-295.5 1581,-301.5 1575,-307.5 1569,-307.5"/>
<text text-anchor="middle" x="1419" y="-286.5" font-family="Consolas" font-size="15.00" fill="#d7f7ff">Evidence Grounding Agent</text>
<text text-anchor="middle" x="1419" y="-269.5" font-family="Consolas" font-size="15.00" fill="#d7f7ff">Retrieves policy evidence</text>
<text text-anchor="middle" x="1419" y="-252.5" font-family="Consolas" font-size="15.00" fill="#d7f7ff">through Foundry IQ when available</text>
</g>
<!-- orchestrator&#45;&gt;evidence -->
<g id="edge8" class="edge">
<title>orchestrator&#45;&gt;evidence</title>
<path fill="none" stroke="#9ae8ff" stroke-width="2" d="M826.43,-283.25C826.43,-283.25 1248.85,-283.25 1248.85,-283.25"/>
<polygon fill="#9ae8ff" stroke="#9ae8ff" stroke-width="2" points="1248.85,-286.05 1256.85,-283.25 1248.85,-280.45 1248.85,-286.05"/>
<text text-anchor="middle" x="1041.5" y="-288.4" font-family="Consolas" font-size="12.00" fill="#82aab0">1. ground</text>
</g>
<!-- scenario&#45;&gt;frontend -->
<g id="edge7" class="edge">
<title>scenario&#45;&gt;frontend</title>
<path fill="none" stroke="#9ae8ff" stroke-width="2" d="M1103,-346.44C1103,-338.33 1103,-332 1103,-332 1103,-332 3878.56,-332 3878.56,-332"/>
<polygon fill="#9ae8ff" stroke="#9ae8ff" stroke-width="2" points="3878.56,-334.8 3886.56,-332 3878.56,-329.2 3878.56,-334.8"/>
<text text-anchor="middle" x="2411.5" y="-594.4" font-family="Consolas" font-size="12.00" fill="#82aab0">GEN&#45;* drill</text>
</g>
<!-- fallback -->
<g id="node11" class="node">
<title>fallback</title>
<path fill="#102018" stroke="#7ee2a8" stroke-width="2" d="M2087.5,-307.5C2087.5,-307.5 1814.5,-307.5 1814.5,-307.5 1808.5,-307.5 1802.5,-301.5 1802.5,-295.5 1802.5,-295.5 1802.5,-250.5 1802.5,-250.5 1802.5,-244.5 1808.5,-238.5 1814.5,-238.5 1814.5,-238.5 2087.5,-238.5 2087.5,-238.5 2093.5,-238.5 2099.5,-244.5 2099.5,-250.5 2099.5,-250.5 2099.5,-295.5 2099.5,-295.5 2099.5,-301.5 2093.5,-307.5 2087.5,-307.5"/>
<text text-anchor="middle" x="1951" y="-286.5" font-family="Consolas" font-size="15.00" fill="#d7f7ff">Local Synthetic Fallback</text>
<text text-anchor="middle" x="1951" y="-269.5" font-family="Consolas" font-size="15.00" fill="#d7f7ff">Keeps demo reliable if Foundry</text>
<text text-anchor="middle" x="1951" y="-252.5" font-family="Consolas" font-size="15.00" fill="#d7f7ff">is unavailable</text>
</g>
<!-- scenario&#45;&gt;fallback -->
<g id="edge6" class="edge">
<title>scenario&#45;&gt;fallback</title>
<path fill="none" stroke="#9ae8ff" stroke-width="2" d="M1226.1,-350.5C1491.94,-350.5 1951,-350.5 1951,-350.5 1951,-350.5 1951,-315.67 1951,-315.67"/>
<polygon fill="#9ae8ff" stroke="#9ae8ff" stroke-width="2" points="1953.8,-315.67 1951,-307.67 1948.2,-315.67 1953.8,-315.67"/>
<text text-anchor="middle" x="1419" y="-405.4" font-family="Consolas" font-size="12.00" fill="#82aab0">safe fallback</text>
</g>
<!-- project -->
<g id="node12" class="node">
<title>project</title>
<path fill="#102027" stroke="#9ae8ff" stroke-width="2" d="M1524,-174.5C1524,-174.5 1314,-174.5 1314,-174.5 1308,-174.5 1302,-168.5 1302,-162.5 1302,-162.5 1302,-117.5 1302,-117.5 1302,-111.5 1308,-105.5 1314,-105.5 1314,-105.5 1524,-105.5 1524,-105.5 1530,-105.5 1536,-111.5 1536,-117.5 1536,-117.5 1536,-162.5 1536,-162.5 1536,-168.5 1530,-174.5 1524,-174.5"/>
<text text-anchor="middle" x="1419" y="-153.5" font-family="Consolas" font-size="15.00" fill="#d7f7ff">Foundry Project</text>
<text text-anchor="middle" x="1419" y="-136.5" font-family="Consolas" font-size="15.00" fill="#d7f7ff">controlroom&#45;iq</text>
<text text-anchor="middle" x="1419" y="-119.5" font-family="Consolas" font-size="15.00" fill="#d7f7ff">gpt&#45;4.1&#45;mini deployment</text>
</g>
<!-- scenario&#45;&gt;project -->
<g id="edge5" class="edge">
<title>scenario&#45;&gt;project</title>
<path fill="none" stroke="#9ae8ff" stroke-width="2" d="M980,-346.47C980,-279.83 980,-140 980,-140 980,-140 1293.93,-140 1293.93,-140"/>
<polygon fill="#9ae8ff" stroke="#9ae8ff" stroke-width="2" points="1293.93,-142.8 1301.93,-140 1293.93,-137.2 1293.93,-142.8"/>
</g>
<!-- critic -->
<g id="node8" class="node">
<title>critic</title>
<path fill="#111a1d" stroke="#7dc4cd" stroke-width="2" d="M2119,-423.5C2119,-423.5 1783,-423.5 1783,-423.5 1777,-423.5 1771,-417.5 1771,-411.5 1771,-411.5 1771,-366.5 1771,-366.5 1771,-360.5 1777,-354.5 1783,-354.5 1783,-354.5 2119,-354.5 2119,-354.5 2125,-354.5 2131,-360.5 2131,-366.5 2131,-366.5 2131,-411.5 2131,-411.5 2131,-417.5 2125,-423.5 2119,-423.5"/>
<text text-anchor="middle" x="1951" y="-402.5" font-family="Consolas" font-size="15.00" fill="#d7f7ff">Risk Critic Agent</text>
<text text-anchor="middle" x="1951" y="-385.5" font-family="Consolas" font-size="15.00" fill="#d7f7ff">Checks privacy, bias, stale evidence,</text>
<text text-anchor="middle" x="1951" y="-368.5" font-family="Consolas" font-size="15.00" fill="#d7f7ff">missing evidence, automation risk</text>
</g>
<!-- evidence&#45;&gt;critic -->
<g id="edge14" class="edge">
<title>evidence&#45;&gt;critic</title>
<path fill="none" stroke="#9ae8ff" stroke-width="2" d="M1581.21,-284.5C1679.87,-284.5 1787,-284.5 1787,-284.5 1787,-284.5 1787,-346.49 1787,-346.49"/>
<polygon fill="#9ae8ff" stroke="#9ae8ff" stroke-width="2" points="1784.2,-346.49 1787,-354.49 1789.8,-346.49 1784.2,-346.49"/>
<text text-anchor="middle" x="1676" y="-414.4" font-family="Consolas" font-size="12.00" fill="#82aab0">2. critique</text>
</g>
<!-- evidence&#45;&gt;fallback -->
<g id="edge13" class="edge">
<title>evidence&#45;&gt;fallback</title>
<path fill="none" stroke="#9ae8ff" stroke-width="2" stroke-dasharray="5,2" d="M1581.15,-261.5C1581.15,-261.5 1794.42,-261.5 1794.42,-261.5"/>
<polygon fill="#9ae8ff" stroke="#9ae8ff" stroke-width="2" points="1794.42,-264.3 1802.42,-261.5 1794.42,-258.7 1794.42,-264.3"/>
<text text-anchor="middle" x="1676" y="-288.4" font-family="Consolas" font-size="12.00" fill="#82aab0">fallback refs</text>
</g>
<!-- agent -->
<g id="node13" class="node">
<title>agent</title>
<path fill="#102027" stroke="#9ae8ff" stroke-width="2" d="M2083,-174.5C2083,-174.5 1819,-174.5 1819,-174.5 1813,-174.5 1807,-168.5 1807,-162.5 1807,-162.5 1807,-117.5 1807,-117.5 1807,-111.5 1813,-105.5 1819,-105.5 1819,-105.5 2083,-105.5 2083,-105.5 2089,-105.5 2095,-111.5 2095,-117.5 2095,-117.5 2095,-162.5 2095,-162.5 2095,-168.5 2089,-174.5 2083,-174.5"/>
<text text-anchor="middle" x="1951" y="-153.5" font-family="Consolas" font-size="15.00" fill="#d7f7ff">Foundry Evidence Agent</text>
<text text-anchor="middle" x="1951" y="-136.5" font-family="Consolas" font-size="15.00" fill="#d7f7ff">controlroom&#45;iq&#45;evidence&#45;agent</text>
<text text-anchor="middle" x="1951" y="-119.5" font-family="Consolas" font-size="15.00" fill="#d7f7ff">Returns grounded brief</text>
</g>
<!-- evidence&#45;&gt;agent -->
<g id="edge9" class="edge">
<title>evidence&#45;&gt;agent</title>
<path fill="none" stroke="#9ae8ff" stroke-width="2" d="M1559,-238.18C1559,-202.28 1559,-151.5 1559,-151.5 1559,-151.5 1798.98,-151.5 1798.98,-151.5"/>
<polygon fill="#9ae8ff" stroke="#9ae8ff" stroke-width="2" points="1798.98,-154.3 1806.98,-151.5 1798.98,-148.7 1798.98,-154.3"/>
<text text-anchor="middle" x="1676" y="-215.4" font-family="Consolas" font-size="12.00" fill="#82aab0">agentic retrieval</text>
</g>
<!-- assess -->
<g id="node9" class="node">
<title>assess</title>
<path fill="#111a1d" stroke="#7dc4cd" stroke-width="2" d="M2516.5,-423.5C2516.5,-423.5 2306.5,-423.5 2306.5,-423.5 2300.5,-423.5 2294.5,-417.5 2294.5,-411.5 2294.5,-411.5 2294.5,-366.5 2294.5,-366.5 2294.5,-360.5 2300.5,-354.5 2306.5,-354.5 2306.5,-354.5 2516.5,-354.5 2516.5,-354.5 2522.5,-354.5 2528.5,-360.5 2528.5,-366.5 2528.5,-366.5 2528.5,-411.5 2528.5,-411.5 2528.5,-417.5 2522.5,-423.5 2516.5,-423.5"/>
<text text-anchor="middle" x="2411.5" y="-402.5" font-family="Consolas" font-size="15.00" fill="#d7f7ff">Assessment Agent</text>
<text text-anchor="middle" x="2411.5" y="-385.5" font-family="Consolas" font-size="15.00" fill="#d7f7ff">Scores learner decision</text>
<text text-anchor="middle" x="2411.5" y="-368.5" font-family="Consolas" font-size="15.00" fill="#d7f7ff">and explains result</text>
</g>
<!-- critic&#45;&gt;assess -->
<g id="edge15" class="edge">
<title>critic&#45;&gt;assess</title>
<path fill="none" stroke="#9ae8ff" stroke-width="2" d="M2131.02,-389C2131.02,-389 2286.32,-389 2286.32,-389"/>
<polygon fill="#9ae8ff" stroke="#9ae8ff" stroke-width="2" points="2286.32,-391.8 2294.32,-389 2286.32,-386.2 2286.32,-391.8"/>
<text text-anchor="middle" x="2192.5" y="-392.4" font-family="Consolas" font-size="12.00" fill="#82aab0">3. score</text>
</g>
<!-- assess&#45;&gt;frontend -->
<g id="edge17" class="edge">
<title>assess&#45;&gt;frontend</title>
<path fill="none" stroke="#9ae8ff" stroke-width="2" d="M2412,-354.48C2412,-344.99 2412,-337.25 2412,-337.25 2412,-337.25 3878.7,-337.25 3878.7,-337.25"/>
<polygon fill="#9ae8ff" stroke="#9ae8ff" stroke-width="2" points="3878.7,-340.05 3886.7,-337.25 3878.7,-334.45 3878.7,-340.05"/>
<text text-anchor="middle" x="3244.5" y="-499.4" font-family="Consolas" font-size="12.00" fill="#82aab0">score + explanation + trace</text>
</g>
<!-- manager -->
<g id="node10" class="node">
<title>manager</title>
<path fill="#111a1d" stroke="#7dc4cd" stroke-width="2" d="M3032.5,-411.5C3032.5,-411.5 2831.5,-411.5 2831.5,-411.5 2825.5,-411.5 2819.5,-405.5 2819.5,-399.5 2819.5,-399.5 2819.5,-354.5 2819.5,-354.5 2819.5,-348.5 2825.5,-342.5 2831.5,-342.5 2831.5,-342.5 3032.5,-342.5 3032.5,-342.5 3038.5,-342.5 3044.5,-348.5 3044.5,-354.5 3044.5,-354.5 3044.5,-399.5 3044.5,-399.5 3044.5,-405.5 3038.5,-411.5 3032.5,-411.5"/>
<text text-anchor="middle" x="2932" y="-390.5" font-family="Consolas" font-size="15.00" fill="#d7f7ff">Manager Insights Agent</text>
<text text-anchor="middle" x="2932" y="-373.5" font-family="Consolas" font-size="15.00" fill="#d7f7ff">Summarises readiness</text>
<text text-anchor="middle" x="2932" y="-356.5" font-family="Consolas" font-size="15.00" fill="#d7f7ff">and over&#45;trust risk</text>
</g>
<!-- assess&#45;&gt;manager -->
<g id="edge16" class="edge">
<title>assess&#45;&gt;manager</title>
<path fill="none" stroke="#9ae8ff" stroke-width="2" d="M2528.63,-383C2528.63,-383 2811.29,-383 2811.29,-383"/>
<polygon fill="#9ae8ff" stroke="#9ae8ff" stroke-width="2" points="2811.29,-385.8 2819.29,-383 2811.29,-380.2 2811.29,-385.8"/>
<text text-anchor="middle" x="2660.5" y="-387.4" font-family="Consolas" font-size="12.00" fill="#82aab0">readiness update</text>
</g>
<!-- manager&#45;&gt;manager_ui -->
<g id="edge18" class="edge">
<title>manager&#45;&gt;manager_ui</title>
<path fill="none" stroke="#9ae8ff" stroke-width="2" d="M3044.63,-349C3222.38,-349 3548,-349 3548,-349 3548,-349 3548,-316.48 3548,-316.48"/>
<polygon fill="#9ae8ff" stroke="#9ae8ff" stroke-width="2" points="3550.8,-316.48 3548,-308.48 3545.2,-316.48 3550.8,-316.48"/>
<text text-anchor="middle" x="3244.5" y="-358.4" font-family="Consolas" font-size="12.00" fill="#82aab0">team signals</text>
</g>
<!-- safety -->
<g id="node16" class="node">
<title>safety</title>
<path fill="#102018" stroke="#7ee2a8" stroke-width="2" d="M3689,-174.5C3689,-174.5 3407,-174.5 3407,-174.5 3401,-174.5 3395,-168.5 3395,-162.5 3395,-162.5 3395,-83.5 3395,-83.5 3395,-77.5 3401,-71.5 3407,-71.5 3407,-71.5 3689,-71.5 3689,-71.5 3695,-71.5 3701,-77.5 3701,-83.5 3701,-83.5 3701,-162.5 3701,-162.5 3701,-168.5 3695,-174.5 3689,-174.5"/>
<text text-anchor="middle" x="3548" y="-153.5" font-family="Consolas" font-size="15.00" fill="#d7f7ff">Responsible AI Guardrails</text>
<text text-anchor="middle" x="3548" y="-136.5" font-family="Consolas" font-size="15.00" fill="#d7f7ff">Synthetic data only</text>
<text text-anchor="middle" x="3548" y="-119.5" font-family="Consolas" font-size="15.00" fill="#d7f7ff">No credentials or PII</text>
<text text-anchor="middle" x="3548" y="-102.5" font-family="Consolas" font-size="15.00" fill="#d7f7ff">No autonomous real&#45;world action</text>
<text text-anchor="middle" x="3548" y="-85.5" font-family="Consolas" font-size="15.00" fill="#d7f7ff">Human oversight required</text>
</g>
<!-- fallback&#45;&gt;safety -->
<g id="edge20" class="edge">
<title>fallback&#45;&gt;safety</title>
<path fill="none" stroke="#9ae8ff" stroke-width="2" stroke-dasharray="5,2" d="M2099.64,-273C2470.49,-273 3407,-273 3407,-273 3407,-273 3407,-182.62 3407,-182.62"/>
<polygon fill="#9ae8ff" stroke="#9ae8ff" stroke-width="2" points="3409.8,-182.62 3407,-174.62 3404.2,-182.62 3409.8,-182.62"/>
</g>
<!-- project&#45;&gt;agent -->
<g id="edge10" class="edge">
<title>project&#45;&gt;agent</title>
<path fill="none" stroke="#9ae8ff" stroke-width="2" d="M1536.08,-128.5C1536.08,-128.5 1798.7,-128.5 1798.7,-128.5"/>
<polygon fill="#9ae8ff" stroke="#9ae8ff" stroke-width="2" points="1798.7,-131.3 1806.7,-128.5 1798.7,-125.7 1798.7,-131.3"/>
<text text-anchor="middle" x="1676" y="-143.4" font-family="Consolas" font-size="12.00" fill="#82aab0">hosted model</text>
</g>
<!-- kb -->
<g id="node14" class="node">
<title>kb</title>
<path fill="#102027" stroke="#9ae8ff" stroke-width="2" d="M2557,-170.5C2557,-170.5 2266,-170.5 2266,-170.5 2260,-170.5 2254,-164.5 2254,-158.5 2254,-158.5 2254,-113.5 2254,-113.5 2254,-107.5 2260,-101.5 2266,-101.5 2266,-101.5 2557,-101.5 2557,-101.5 2563,-101.5 2569,-107.5 2569,-113.5 2569,-113.5 2569,-158.5 2569,-158.5 2569,-164.5 2563,-170.5 2557,-170.5"/>
<text text-anchor="middle" x="2411.5" y="-149.5" font-family="Consolas" font-size="15.00" fill="#d7f7ff">Foundry IQ Knowledge Base</text>
<text text-anchor="middle" x="2411.5" y="-132.5" font-family="Consolas" font-size="15.00" fill="#d7f7ff">controlroom&#45;iq&#45;supervision&#45;kb</text>
<text text-anchor="middle" x="2411.5" y="-115.5" font-family="Consolas" font-size="15.00" fill="#d7f7ff">Agentic retrieval with citations</text>
</g>
<!-- agent&#45;&gt;kb -->
<g id="edge11" class="edge">
<title>agent&#45;&gt;kb</title>
<path fill="none" stroke="#9ae8ff" stroke-width="2" d="M2095.13,-138C2095.13,-138 2245.78,-138 2245.78,-138"/>
<polygon fill="#9ae8ff" stroke="#9ae8ff" stroke-width="2" points="2245.78,-140.8 2253.78,-138 2245.78,-135.2 2245.78,-140.8"/>
<text text-anchor="middle" x="2192.5" y="-139.4" font-family="Consolas" font-size="12.00" fill="#82aab0">queries</text>
</g>
<!-- docs -->
<g id="node15" class="node">
<title>docs</title>
<path fill="#102018" stroke="#7ee2a8" stroke-width="2" d="M3100,-174.5C3100,-174.5 2764,-174.5 2764,-174.5 2758,-174.5 2752,-168.5 2752,-162.5 2752,-162.5 2752,-83.5 2752,-83.5 2752,-77.5 2758,-71.5 2764,-71.5 2764,-71.5 3100,-71.5 3100,-71.5 3106,-71.5 3112,-77.5 3112,-83.5 3112,-83.5 3112,-162.5 3112,-162.5 3112,-168.5 3106,-174.5 3100,-174.5"/>
<text text-anchor="middle" x="2932" y="-153.5" font-family="Consolas" font-size="15.00" fill="#d7f7ff">Synthetic Knowledge Pack</text>
<text text-anchor="middle" x="2932" y="-136.5" font-family="Consolas" font-size="15.00" fill="#d7f7ff">human&#45;approval&#45;thresholds.md</text>
<text text-anchor="middle" x="2932" y="-119.5" font-family="Consolas" font-size="15.00" fill="#d7f7ff">responsible&#45;ai&#45;supervision&#45;guide.md</text>
<text text-anchor="middle" x="2932" y="-102.5" font-family="Consolas" font-size="15.00" fill="#d7f7ff">enterprise&#45;ai&#45;supervision&#45;policies.md</text>
<text text-anchor="middle" x="2932" y="-85.5" font-family="Consolas" font-size="15.00" fill="#d7f7ff">domain&#45;control&#45;runbooks.md</text>
</g>
<!-- kb&#45;&gt;docs -->
<g id="edge12" class="edge">
<title>kb&#45;&gt;docs</title>
<path fill="none" stroke="#9ae8ff" stroke-width="2" d="M2569.08,-136C2569.08,-136 2743.7,-136 2743.7,-136"/>
<polygon fill="#9ae8ff" stroke="#9ae8ff" stroke-width="2" points="2743.7,-138.8 2751.7,-136 2743.7,-133.2 2743.7,-138.8"/>
<text text-anchor="middle" x="2660.5" y="-131.4" font-family="Consolas" font-size="12.00" fill="#82aab0">indexes</text>
</g>
<!-- docs&#45;&gt;safety -->
<g id="edge19" class="edge">
<title>docs&#45;&gt;safety</title>
<path fill="none" stroke="#9ae8ff" stroke-width="2" stroke-dasharray="5,2" d="M3112.24,-123C3112.24,-123 3387,-123 3387,-123"/>
<polygon fill="#9ae8ff" stroke="#9ae8ff" stroke-width="2" points="3387,-125.8 3395,-123 3387,-120.2 3387,-125.8"/>
</g>
<!-- safety&#45;&gt;frontend -->
<g id="edge21" class="edge">
<title>safety&#45;&gt;frontend</title>
<path fill="none" stroke="#9ae8ff" stroke-width="2" d="M3690,-174.68C3690,-235.04 3690,-326.75 3690,-326.75 3690,-326.75 3878.73,-326.75 3878.73,-326.75"/>
<polygon fill="#9ae8ff" stroke="#9ae8ff" stroke-width="2" points="3878.73,-329.55 3886.73,-326.75 3878.73,-323.95 3878.73,-329.55"/>
<text text-anchor="middle" x="3803" y="-222.4" font-family="Consolas" font-size="12.00" fill="#82aab0">transparent UI</text>
</g>
</g>
</svg>
